<?xml version="1.0" encoding="UTF-8" standalone="no"?> <svg id="Layer_1" data-name="Layer 1" xmlns="http://www.w3.org/2000/svg" viewBox="0 0 128 128"><defs><style>.cls-1{fill:#2d3e50;}</style></defs><title>b</title><path class="cls-1" d="M30.10453,73.95406c2.50067.36909,4.91551.6409,7.20446.8097,2.48064.18885,4.9241.28612,7.27028.29471,2.62941,0,5.01851-.08012,7.28743-.24035A102.266,102.266,0,0,0,66.38147,72.7123a97.11147,97.11147,0,0,0,27.18411-10.326c1.09011-.6123,2.13159-1.22746,3.10724-1.8283.52074-.32045,1.01572-.63519,1.52788-.96422l1.57652-1.03c1.43059-.94419,2.87835-1.96563,4.38332-3.10151A40.39422,40.39422,0,1,0,25.33207,73.14148C26.94863,73.46193,28.54518,73.73088,30.10453,73.95406ZM76.51294,44.96741a4.369,4.369,0,1,1-4.369,4.369A4.369,4.369,0,0,1,76.51294,44.96741Zm-24.38588.57795a5.565,5.565,0,1,1-5.565,5.565A5.56571,5.56571,0,0,1,52.12705,45.54535Z"/><path class="cls-1" d="M126.25461,50.93583c-.01144-.20315-.03433-.40628-.063-.60657-.0143-.10015-.03147-.20029-.0515-.29757l-.05436-.2718-.06867-.269c-.02574-.09729-.0515-.19456-.083-.29185-.063-.19169-.12876-.38341-.206-.57224a7.214,7.214,0,0,0-.54361-1.08154,7.35726,7.35726,0,0,0-1.56794-1.81971,7.5262,7.5262,0,0,0-2.0343-1.216c-.33475-.1316-.67237-.26322-1.01-.38912-1.35049-.50357-2.71241-.93275-4.05431-1.32473-.67524-.20029-1.3333-.37768-2.01427-.55507-.6924-.17739-1.35906-.33762-2.03716-.49212-1.35333-.31188-2.71526-.5894-4.07719-.83832-1.45349-.26611-2.91268-.4864-4.37474-.66952a45.73817,45.73817,0,0,1,4.28318,9.25308c.70957.1688,1.41629.34906,2.12015.535.60657.16023,1.22171.33189,1.80541.50355l1.80254.5465c.329.103.6552.20886.98138.31759a1.01078,1.01078,0,0,1,.37768,1.68524c-.24606.23748-.49784.47208-.74963.70957l-1.39055,1.2675c-.45205.4063-.93273.824-1.41056,1.23317q-.80256.6867-1.628,1.35049c-.42918.34906-.86407.6924-1.299,1.03288q-.86.67148-1.7374,1.32469c-.19087.1428-.38376.28334-.57578.42486q-.6264.4615-1.26041.91349c-.26476.18857-.52922.37749-.79629.56342q-.17448.12157-.34935.24269-.71379.49181-1.438.97141l-1.59939,1.04432c-.54936.35194-1.07867.68956-1.61944,1.02144q-1.618,1-3.2875,1.937A103.045,103.045,0,0,1,67.5374,78.02552a107.3422,107.3422,0,0,1-15.28446,2.21455c-2.56361.18312-5.1301.25465-7.69086.25465-2.55788-.00859-5.11864-.11732-7.65651-.309-2.54073-.18883-5.06716-.48068-7.57356-.84976q-1.01005-.14431-2.01739-.31265-.8106-.13383-1.6172-.28037c-.13906-.0253-.27754-.05209-.41641-.07794q-.64185-.11945-1.28058-.24641-.24191-.04812-.48352-.09687-.82042-.16723-1.6354-.34483c-.35765-.07726-.7153-.15736-1.07008-.24035-.86695-.20029-6.1773-1.65091-6.1773-1.65091l-.02289-.00857a1.00988,1.00988,0,0,1-.392-1.70527c.00573-.00286.00859-.00857.0143-.01144,0,0,4.1802-3.648,4.88977-4.22025a46.21363,46.21363,0,0,1-.13162-11.193q-.59227.36049-1.17881.73533c-1.1645.741-2.33472,1.50783-3.46489,2.31469-1.133.804-2.25748,1.628-3.35045,2.4921-.55221.43491-1.08438.86122-1.64518,1.32473-.54934.45778-1.06435.89555-1.59366,1.36479-1.05293.92988-2.11156,1.90268-3.12729,2.94129l-.7582.78683A8.09928,8.09928,0,0,0,2.454,73.02418,7.92549,7.92549,0,0,0,6.7916,83.71069l1.02429.38625c1.36479.495,2.73816.91845,4.08864,1.30185.681.19456,1.33617.36909,2.02857.54361.70672.17455,1.37052.33191,2.05433.48354,1.36193.309,2.72958.56653,4.10295.804,1.36479.24035,2.75532.42631,4.123.59513.41774.04864.83834.09729,1.25606.1402q1.43346.15879,2.86691.27754,1.0331.08162,2.06708.14109c.38838.02248.77678.03765,1.16519.05562.31294.01453.62585.03229.93876.044l.05209.00244a40.39872,40.39872,0,0,0,69.707-9.6851,39.90013,39.90013,0,0,0,2.08863-7.2357c.319-.17821.63538-.35679.94424-.53242.5894-.33475,1.19024-.681,1.77965-1.03575q1.71671-1.03,3.402-2.12872Q112.27057,66.701,114.003,65.442q1.67807-1.22747,3.3018-2.535c.54363-.43489,1.07294-.86979,1.61944-1.3333.5379-.45494,1.05-.90128,1.57365-1.37336,1.03861-.93848,2.07436-1.91986,3.07-2.96418.24892-.26038.49784-.5236.74105-.78969a7.41656,7.41656,0,0,0,1.3047-1.97709,7.2983,7.2983,0,0,0,.62087-2.32328A7.12151,7.12151,0,0,0,126.25461,50.93583Z"/></svg>